<svg width="199" height="167" viewBox="0 0 199 167" fill="none" xmlns="http://www.w3.org/2000/svg">
<g filter="url(#filter0_d_2008_875)">
<path d="M160.069 17.2398C162.976 10.3743 170.899 7.16489 177.764 10.0718C184.63 12.9791 187.839 20.9016 184.932 27.7671L140.317 133.128C129.444 158.806 91.5216 153.158 88.6022 125.427L86.071 101.377L73.4323 131.392C62.5203 157.307 24.2048 151.362 21.6588 123.359L13.0563 28.7261C12.3813 21.3011 17.853 14.7344 25.278 14.0591C32.7031 13.3841 39.2697 18.8558 39.945 26.2808L48.5485 120.915L61.1862 90.899C72.0183 65.1728 110 70.7892 112.923 98.5494L115.454 122.6L160.069 17.2398Z" fill="url(#paint0_linear_2008_875)"/>
<path d="M160.069 17.2398C162.976 10.3743 170.899 7.16489 177.764 10.0718C184.63 12.9791 187.839 20.9016 184.932 27.7671L140.317 133.128C129.444 158.806 91.5216 153.158 88.6022 125.427L86.071 101.377L73.4323 131.392C62.5203 157.307 24.2048 151.362 21.6588 123.359L13.0563 28.7261C12.3813 21.3011 17.853 14.7344 25.278 14.0591C32.7031 13.3841 39.2697 18.8558 39.945 26.2808L48.5485 120.915L61.1862 90.899C72.0183 65.1728 110 70.7892 112.923 98.5494L115.454 122.6L160.069 17.2398Z" stroke="#FFF2F2" stroke-width="5" stroke-linecap="round"/>
</g>
<defs>
<filter id="filter0_d_2008_875" x="0.499756" y="0.49939" width="198.005" height="165.619" filterUnits="userSpaceOnUse" color-interpolation-filters="sRGB">
<feFlood flood-opacity="0" result="BackgroundImageFix"/>
<feColorMatrix in="SourceAlpha" type="matrix" values="0 0 0 0 0 0 0 0 0 0 0 0 0 0 0 0 0 0 127 0" result="hardAlpha"/>
<feOffset dy="4"/>
<feGaussianBlur stdDeviation="5"/>
<feComposite in2="hardAlpha" operator="out"/>
<feColorMatrix type="matrix" values="0 0 0 0 0 0 0 0 0 0 0 0 0 0 0 0 0 0 0.25 0"/>
<feBlend mode="normal" in2="BackgroundImageFix" result="effect1_dropShadow_2008_875"/>
<feBlend mode="normal" in="SourceGraphic" in2="effect1_dropShadow_2008_875" result="shape"/>
</filter>
<linearGradient id="paint0_linear_2008_875" x1="107.501" y1="65.7535" x2="85.0007" y2="176.003" gradientUnits="userSpaceOnUse">
<stop stop-color="#FF8B00"/>
<stop offset="0.579142" stop-color="#EBDFD1"/>
<stop offset="1" stop-color="#808080"/>
</linearGradient>
</defs>
</svg>
