<svg width="390" height="294" viewBox="0 0 390 294" fill="none" xmlns="http://www.w3.org/2000/svg">
<path d="M-93.1121 -51.6809L-61.9589 79.8363C-48.5846 136.298 -6.26535 181.428 49.2204 198.401L119.947 220.036C127.696 222.407 135.754 223.612 143.858 223.612L211.951 223.612C265.294 223.612 289.466 156.933 248.514 122.751V122.751C238.255 114.188 225.315 109.497 211.951 109.497L207.7 109.497C152.159 109.497 119.52 171.926 151.217 217.535L169.828 244.315C177.429 255.252 187.728 264.04 199.726 269.825V269.825C210.197 274.875 221.672 277.497 233.297 277.497L442.635 277.497" stroke="#FFD2BA" stroke-width="31.459"/>
</svg>
